<svg width="32" height="32" viewBox="0 0 32 32" fill="none" xmlns="http://www.w3.org/2000/svg">
<path d="M15.9987 28.6654C22.9943 28.6654 28.6654 22.9943 28.6654 15.9987C28.6654 9.00309 22.9943 3.33203 15.9987 3.33203C9.00309 3.33203 3.33203 9.00309 3.33203 15.9987C3.33203 22.9943 9.00309 28.6654 15.9987 28.6654Z" fill="url(#paint0_linear_1559_3962)"/>
<path opacity="0.5" d="M15.997 25.4272C21.2356 25.4272 25.4823 21.1937 25.4823 15.9714C25.4823 10.7491 21.2356 6.51562 15.997 6.51562C10.7584 6.51562 6.51172 10.7491 6.51172 15.9714C6.51172 21.1937 10.7584 25.4272 15.997 25.4272Z" fill="#EEA35F"/>
<path opacity="0.5" fill-rule="evenodd" clip-rule="evenodd" d="M15.997 24.5225C20.7385 24.5225 24.5775 20.6914 24.5775 15.9714C24.5775 11.2515 20.7385 7.42039 15.997 7.42039C11.2555 7.42039 7.41648 11.2515 7.41648 15.9714C7.41648 20.6914 11.2555 24.5225 15.997 24.5225ZM25.4823 15.9714C25.4823 21.1937 21.2356 25.4272 15.997 25.4272C10.7584 25.4272 6.51172 21.1937 6.51172 15.9714C6.51172 10.7491 10.7584 6.51562 15.997 6.51562C21.2356 6.51562 25.4823 10.7491 25.4823 15.9714Z" fill="url(#paint1_linear_1559_3962)"/>
<path fill-rule="evenodd" clip-rule="evenodd" d="M19.5849 11.3541C20.2572 11.3541 20.6254 12.1356 20.1994 12.6558L17.5704 15.8564C17.4848 15.9592 17.4741 16.1069 17.5447 16.2203L19.5507 19.4916C19.8761 20.0225 19.4929 20.7033 18.872 20.7033H17.5682C17.4034 20.7033 17.2514 20.6113 17.1722 20.4657L14.8686 16.2054C14.8108 16.0983 14.8215 15.9656 14.8943 15.8671L18.1377 11.534C18.2234 11.4205 18.3582 11.3541 18.4995 11.3541H19.5849ZM13.2352 11.3542H14.5561C14.8237 11.3542 15.0335 11.5854 15.0057 11.8509L14.1322 20.2987C14.1087 20.5278 13.9138 20.7034 13.6826 20.7034H12.4281C11.9549 20.7034 11.5867 20.2944 11.636 19.8256L12.4431 12.0671C12.4859 11.6625 12.8284 11.3542 13.2352 11.3542Z" fill="white"/>
<path fill-rule="evenodd" clip-rule="evenodd" d="M20.5338 12.9297L20.5334 12.9302L17.9573 16.0663L19.9192 19.2656L19.9192 19.2657C20.4217 20.0855 19.8297 21.1356 18.872 21.1356H17.5682C17.2415 21.1356 16.9457 20.9538 16.7925 20.6723L16.7922 20.6718L14.8916 17.1568L14.5622 20.3429L14.5622 20.3431L14.5622 20.3432C14.5158 20.7935 14.1345 21.1356 13.6826 21.1356H12.4281C11.699 21.1356 11.13 20.5052 11.206 19.7806L11.2061 19.7804L12.0132 12.0216C12.0793 11.3972 12.6072 10.9219 13.2352 10.9219H14.5561C15.0777 10.9219 15.4903 11.3727 15.4356 11.8957L15.4356 11.8959L15.1325 14.8275L17.7922 11.2743L17.7927 11.2736C17.9608 11.0509 18.2239 10.9219 18.4995 10.9219H19.5849C20.624 10.9219 21.1897 12.1288 20.5338 12.9297ZM18.1377 11.534C18.2234 11.4205 18.3582 11.3541 18.4995 11.3541H19.5849C20.2572 11.3541 20.6254 12.1356 20.1994 12.6558L17.5704 15.8564C17.4848 15.9592 17.4741 16.1069 17.5447 16.2203L19.5507 19.4916C19.8761 20.0225 19.4929 20.7033 18.872 20.7033H17.5682C17.4034 20.7033 17.2514 20.6113 17.1722 20.4657L14.8686 16.2054C14.8108 16.0983 14.8215 15.9656 14.8943 15.8671L18.1377 11.534ZM15.0057 11.8509C15.0335 11.5854 14.8237 11.3542 14.5561 11.3542H13.2352C12.8284 11.3542 12.4859 11.6625 12.4431 12.0671L11.636 19.8256C11.5867 20.2944 11.9549 20.7034 12.4281 20.7034H13.6826C13.9138 20.7034 14.1087 20.5278 14.1322 20.2987L15.0057 11.8509Z" fill="url(#paint2_linear_1559_3962)"/>
<defs>
<linearGradient id="paint0_linear_1559_3962" x1="0.563039" y1="15.9987" x2="28.6654" y2="15.9987" gradientUnits="userSpaceOnUse">
<stop stop-color="#EEA35F"/>
<stop offset="1" stop-color="#FFBF86"/>
</linearGradient>
<linearGradient id="paint1_linear_1559_3962" x1="14.1616" y1="11.8993" x2="23.3901" y2="29.6628" gradientUnits="userSpaceOnUse">
<stop stop-color="white"/>
<stop offset="1" stop-color="#FFBE84"/>
</linearGradient>
<linearGradient id="paint2_linear_1559_3962" x1="15.9904" y1="12.2687" x2="15.9904" y2="19.7916" gradientUnits="userSpaceOnUse">
<stop stop-color="#EC9E56"/>
<stop offset="1" stop-color="#FFBF86"/>
</linearGradient>
</defs>
</svg>
