<svg width="32" height="32" viewBox="0 0 32 32" fill="none" xmlns="http://www.w3.org/2000/svg">
<path d="M16.0013 29.3307C14.1569 29.3307 12.4235 28.9807 10.8013 28.2807C9.17908 27.5807 7.76797 26.6307 6.56797 25.4307C5.36797 24.2307 4.41797 22.8196 3.71797 21.1974C3.01797 19.5752 2.66797 17.8418 2.66797 15.9974C2.66797 14.153 3.01797 12.4196 3.71797 10.7974C4.41797 9.17517 5.36797 7.76406 6.56797 6.56406C7.76797 5.36406 9.17908 4.41406 10.8013 3.71406C12.4235 3.01406 14.1569 2.66406 16.0013 2.66406C17.8457 2.66406 19.5791 3.01406 21.2013 3.71406C22.8235 4.41406 24.2346 5.36406 25.4346 6.56406C26.6346 7.76406 27.5846 9.17517 28.2846 10.7974C28.9846 12.4196 29.3346 14.153 29.3346 15.9974C29.3346 17.8418 28.9846 19.5752 28.2846 21.1974C27.5846 22.8196 26.6346 24.2307 25.4346 25.4307C24.2346 26.6307 22.8235 27.5807 21.2013 28.2807C19.5791 28.9807 17.8457 29.3307 16.0013 29.3307ZM16.0013 26.6641C18.9791 26.6641 21.5013 25.6307 23.568 23.5641C25.6346 21.4974 26.668 18.9752 26.668 15.9974C26.668 13.0196 25.6346 10.4974 23.568 8.43073C21.5013 6.36406 18.9791 5.33073 16.0013 5.33073C13.0235 5.33073 10.5013 6.36406 8.43464 8.43073C6.36797 10.4974 5.33464 13.0196 5.33464 15.9974C5.33464 18.9752 6.36797 21.4974 8.43464 23.5641C10.5013 25.6307 13.0235 26.6641 16.0013 26.6641ZM15.968 25.3307C16.2791 25.3307 16.5513 25.2141 16.7846 24.9807C17.018 24.7474 17.1346 24.4752 17.1346 24.1641V23.6641C18.2457 23.4641 19.2013 23.0307 20.0013 22.3641C20.8013 21.6974 21.2013 20.7085 21.2013 19.3974C21.2013 18.4641 20.9346 17.6085 20.4013 16.8307C19.868 16.053 18.8013 15.3752 17.2013 14.7974C15.868 14.353 14.9457 13.9641 14.4346 13.6307C13.9235 13.2974 13.668 12.8418 13.668 12.2641C13.668 11.6863 13.8735 11.2307 14.2846 10.8974C14.6957 10.5641 15.2902 10.3974 16.068 10.3974C16.5124 10.3974 16.9013 10.4752 17.2346 10.6307C17.568 10.7863 17.8457 10.9974 18.068 11.2641C18.2902 11.5307 18.5402 11.7141 18.818 11.8141C19.0957 11.9141 19.3569 11.9085 19.6013 11.7974C19.9346 11.6641 20.1624 11.4363 20.2846 11.1141C20.4069 10.7918 20.3791 10.4974 20.2013 10.2307C19.8457 9.71962 19.4069 9.28628 18.8846 8.93073C18.3624 8.57517 17.8013 8.37517 17.2013 8.33073V7.83073C17.2013 7.51962 17.0846 7.2474 16.8513 7.01406C16.618 6.78073 16.3457 6.66406 16.0346 6.66406C15.7235 6.66406 15.4513 6.78073 15.218 7.01406C14.9846 7.2474 14.868 7.51962 14.868 7.83073V8.33073C13.7569 8.57517 12.8902 9.06406 12.268 9.7974C11.6457 10.5307 11.3346 11.353 11.3346 12.2641C11.3346 13.3085 11.6402 14.153 12.2513 14.7974C12.8624 15.4418 13.8235 15.9974 15.1346 16.4641C16.5346 16.9752 17.5069 17.4307 18.0513 17.8307C18.5957 18.2307 18.868 18.753 18.868 19.3974C18.868 20.1307 18.6069 20.6696 18.0846 21.0141C17.5624 21.3585 16.9346 21.5307 16.2013 21.5307C15.6235 21.5307 15.1013 21.3918 14.6346 21.1141C14.168 20.8363 13.7791 20.4196 13.468 19.8641C13.2902 19.553 13.0569 19.3418 12.768 19.2307C12.4791 19.1196 12.1902 19.1196 11.9013 19.2307C11.5902 19.3418 11.3624 19.553 11.218 19.8641C11.0735 20.1752 11.068 20.4752 11.2013 20.7641C11.5569 21.5196 12.0346 22.1363 12.6346 22.6141C13.2346 23.0918 13.9569 23.4196 14.8013 23.5974V24.1641C14.8013 24.4752 14.918 24.7474 15.1513 24.9807C15.3846 25.2141 15.6569 25.3307 15.968 25.3307Z" fill="#1E7672"/>
</svg>
