<svg width="26" height="26" viewBox="0 0 26 26" fill="none" xmlns="http://www.w3.org/2000/svg">
<circle cx="13" cy="13" r="13" fill="#DA1A35"/>
<circle cx="13" cy="13" r="12.3906" stroke="url(#paint0_linear_2084_257)" stroke-opacity="0.2" stroke-width="1.21875"/>
<mask id="mask0_2084_257" style="mask-type:alpha" maskUnits="userSpaceOnUse" x="0" y="0" width="26" height="26">
<circle cx="13" cy="13" r="13" fill="#D9D9D9"/>
</mask>
<g mask="url(#mask0_2084_257)">
<circle opacity="0.7" cx="6.84766" cy="19.0664" r="13" fill="url(#paint1_linear_2084_257)"/>
<circle opacity="0.1" cx="22.793" cy="3.64062" r="13" fill="white"/>
</g>
<g filter="url(#filter0_d_2084_257)">
<mask id="mask1_2084_257" style="mask-type:alpha" maskUnits="userSpaceOnUse" x="2" y="2" width="22" height="22">
<circle cx="13.0001" cy="13.0001" r="10.2267" fill="#D9D9D9"/>
</mask>
<g mask="url(#mask1_2084_257)">
<g filter="url(#filter1_d_2084_257)">
<path d="M16.7578 14.7438C16.6918 15.0847 16.5654 15.4255 16.3785 15.7663C16.1916 16.1071 15.9387 16.426 15.6199 16.7228C15.3121 17.0087 14.9438 17.2615 14.515 17.4814C14.0862 17.7013 13.6025 17.8662 13.0637 17.9761C13.0637 17.9761 12.9292 19.5508 12.4414 19.9062C11.8915 20.307 10.8209 20.0705 10.8209 20.0705L11.1672 18.0751C10.6835 18.0531 10.2272 17.9981 9.79847 17.9102C9.36969 17.8332 8.91343 17.7178 8.42969 17.5639L9.03906 16.1484C9.29297 15.6406 9.88642 15.8927 10.3922 15.9807C10.9089 16.0686 11.4751 16.1126 12.0908 16.1126C12.4536 16.1126 12.7669 16.0796 13.0308 16.0137C13.2946 15.9367 13.5145 15.8433 13.6904 15.7333C13.8773 15.6234 14.0147 15.5079 14.1027 15.387C14.2016 15.2551 14.2621 15.1341 14.2841 15.0242C14.3391 14.7164 14.2511 14.4855 14.0202 14.3316C13.8004 14.1667 13.3991 14.0842 12.8164 14.0842C11.4091 14.0842 10.4251 13.8368 9.86443 13.3421C9.31472 12.8473 9.12782 12.1052 9.30373 11.1158C9.3587 10.7749 9.47963 10.4396 9.66654 10.1098C9.85344 9.76897 10.1008 9.45013 10.4086 9.15329C10.7275 8.85645 11.0958 8.59808 11.5136 8.3782C11.9423 8.15832 12.4261 7.9934 12.9648 7.88346L13.3441 5.78906C13.3441 5.78906 14.5234 5.78906 14.7773 6.24609C15.0141 6.67233 14.8613 7.76802 14.8613 7.76802C15.356 7.79001 15.8178 7.84498 16.2466 7.93293C16.6753 8.02089 17.1371 8.14182 17.6318 8.29574L17.269 10.2747C16.6973 10.0988 16.1586 9.96686 15.6529 9.87891C15.1472 9.79096 14.5864 9.74698 13.9708 9.74698C13.608 9.74698 13.2946 9.78546 13.0308 9.86242C12.7669 9.92838 12.5415 10.0163 12.3546 10.1263C12.1787 10.2362 12.0413 10.3572 11.9423 10.4891C11.8434 10.61 11.7829 10.7255 11.7609 10.8354C11.706 11.1432 11.7939 11.3796 12.0248 11.5445C12.2557 11.6985 12.657 11.7754 13.2287 11.7754C14.6359 11.7754 15.6199 12.0228 16.1806 12.5175C16.7413 13.0123 16.9337 13.7544 16.7578 14.7438Z" fill="black"/>
<path d="M17.1567 14.821L17.1567 14.8211L17.1578 14.815C17.3489 13.7399 17.1519 12.8327 16.4494 12.2129C15.7722 11.6153 14.6582 11.3692 13.2287 11.3692C12.6758 11.3692 12.382 11.2911 12.2555 11.21C12.2014 11.1701 12.1783 11.1338 12.1664 11.1019C12.1534 11.0669 12.1435 11.0084 12.1599 10.9121C12.1658 10.8864 12.1871 10.8315 12.2568 10.7463L12.2622 10.7397L12.2673 10.7328C12.3289 10.6507 12.4239 10.5627 12.5653 10.4737C12.7107 10.3889 12.8965 10.3147 13.1293 10.2565L13.1369 10.2546L13.1445 10.2524C13.3618 10.189 13.6349 10.1532 13.9708 10.1532C14.5676 10.1532 15.1045 10.1959 15.5833 10.2792C16.0697 10.3637 16.5916 10.4913 17.1496 10.663L17.5862 10.7973L17.6686 10.348L18.0314 8.369L18.0964 8.01481L17.7525 7.90783C17.2472 7.75062 16.7723 7.62606 16.3282 7.53497C16.003 7.46826 15.6618 7.41994 15.3049 7.38957C15.3089 7.32311 15.3123 7.25173 15.3142 7.17758C15.3188 7.0032 15.3159 6.80539 15.2939 6.61665C15.2728 6.43632 15.2304 6.22501 15.1325 6.0488C15.0062 5.82158 14.7901 5.68922 14.6097 5.60994C14.4218 5.52739 14.2153 5.47746 14.0355 5.44602C13.853 5.4141 13.6819 5.39849 13.5576 5.39074C13.495 5.38684 13.4432 5.38486 13.4063 5.38386C13.3879 5.38335 13.3732 5.38309 13.3626 5.38296L13.35 5.38283L13.3462 5.38282L13.3449 5.38281L13.3445 5.38281L13.3443 5.38281C13.3442 5.38281 13.3441 5.38281 13.3441 5.78906V5.38281H13.0048L12.9444 5.71667L12.613 7.54605C12.1482 7.65986 11.7193 7.81613 11.3282 8.01671L11.3282 8.01669L11.3244 8.0187C10.8774 8.25395 10.4791 8.53265 10.1318 8.85596L10.1318 8.85591L10.1267 8.86085C9.79298 9.18261 9.51999 9.53278 9.31169 9.91197C9.10467 10.2779 8.96666 10.6569 8.90319 11.0478C8.71348 12.1188 8.9035 13.0238 9.59267 13.644L9.59265 13.6441L9.59565 13.6467C10.2729 14.2443 11.3868 14.4904 12.8164 14.4904C13.3911 14.4904 13.6715 14.5778 13.7765 14.6566L13.7855 14.6633L13.7949 14.6696C13.8491 14.7057 13.8695 14.7378 13.8797 14.7648C13.8912 14.7948 13.9017 14.8504 13.8851 14.9477C13.8782 14.9782 13.8533 15.0424 13.7777 15.1433L13.7777 15.1432L13.7742 15.1481C13.7303 15.2084 13.6432 15.2898 13.4844 15.3832L13.4844 15.383L13.4751 15.3888C13.3406 15.4729 13.1599 15.5523 12.9247 15.6214C12.703 15.676 12.4268 15.7064 12.0908 15.7064C11.4944 15.7064 10.9515 15.6638 10.461 15.5803C10.3828 15.5667 10.3073 15.5498 10.2215 15.5306C10.18 15.5213 10.1361 15.5114 10.0884 15.5012C9.95407 15.4724 9.79655 15.4421 9.63877 15.4353C9.48041 15.4284 9.29435 15.4435 9.11442 15.5276C8.92542 15.616 8.77663 15.7649 8.6757 15.9668L8.67051 15.9771L8.66592 15.9878L8.05655 17.4032L7.87925 17.815L8.30651 17.951C8.8026 18.1088 9.2745 18.2286 9.72177 18.3092C10.0323 18.3727 10.3551 18.4194 10.6899 18.4498L10.4207 20.0011L10.3543 20.3835L10.7333 20.4672L10.8209 20.0705C10.7333 20.4672 10.7334 20.4673 10.7335 20.4673L10.7337 20.4673L10.7342 20.4674L10.7355 20.4677L10.7394 20.4685L10.7515 20.4711C10.7616 20.4732 10.7757 20.4759 10.7932 20.4792C10.8283 20.4858 10.8776 20.4944 10.9381 20.5032C11.0584 20.5208 11.2259 20.5397 11.4141 20.5448C11.7661 20.5542 12.2902 20.5191 12.6807 20.2346C12.8967 20.0772 13.0318 19.8242 13.1202 19.6091C13.2142 19.3805 13.2827 19.1245 13.3326 18.8937C13.38 18.674 13.4128 18.4664 13.4341 18.309C13.8918 18.1956 14.3145 18.0408 14.7004 17.8429C15.1575 17.6085 15.5576 17.3351 15.8963 17.0205L15.8967 17.0201C16.2435 16.6973 16.5246 16.3448 16.7347 15.9616C16.9395 15.5883 17.0818 15.2078 17.1567 14.821Z" stroke="white" stroke-width="0.8125"/>
</g>
</g>
</g>
<defs>
<filter id="filter0_d_2084_257" x="5.70312" y="4.97656" width="14.4844" height="19.2256" filterUnits="userSpaceOnUse" color-interpolation-filters="sRGB">
<feFlood flood-opacity="0" result="BackgroundImageFix"/>
<feColorMatrix in="SourceAlpha" type="matrix" values="0 0 0 0 0 0 0 0 0 0 0 0 0 0 0 0 0 0 127 0" result="hardAlpha"/>
<feOffset dy="1.625"/>
<feGaussianBlur stdDeviation="0.8125"/>
<feComposite in2="hardAlpha" operator="out"/>
<feColorMatrix type="matrix" values="0 0 0 0 0 0 0 0 0 0 0 0 0 0 0 0 0 0 0.25 0"/>
<feBlend mode="normal" in2="BackgroundImageFix" result="effect1_dropShadow_2084_257"/>
<feBlend mode="normal" in="SourceGraphic" in2="effect1_dropShadow_2084_257" result="shape"/>
</filter>
<filter id="filter1_d_2084_257" x="3.53908" y="4.97656" width="18.8125" height="23.5537" filterUnits="userSpaceOnUse" color-interpolation-filters="sRGB">
<feFlood flood-opacity="0" result="BackgroundImageFix"/>
<feColorMatrix in="SourceAlpha" type="matrix" values="0 0 0 0 0 0 0 0 0 0 0 0 0 0 0 0 0 0 127 0" result="hardAlpha"/>
<feOffset dy="3.78905"/>
<feGaussianBlur stdDeviation="1.89452"/>
<feComposite in2="hardAlpha" operator="out"/>
<feColorMatrix type="matrix" values="0 0 0 0 0 0 0 0 0 0 0 0 0 0 0 0 0 0 0.15 0"/>
<feBlend mode="normal" in2="BackgroundImageFix" result="effect1_dropShadow_2084_257"/>
<feBlend mode="normal" in="SourceGraphic" in2="effect1_dropShadow_2084_257" result="shape"/>
</filter>
<linearGradient id="paint0_linear_2084_257" x1="13" y1="0" x2="13" y2="26" gradientUnits="userSpaceOnUse">
<stop/>
<stop offset="1" stop-opacity="0"/>
</linearGradient>
<linearGradient id="paint1_linear_2084_257" x1="0.000989973" y1="14.0831" x2="19.8464" y2="14.2397" gradientUnits="userSpaceOnUse">
<stop stop-color="#520A14"/>
<stop offset="1" stop-color="#DA1A35"/>
</linearGradient>
</defs>
</svg>
