<svg width="138" height="36" viewBox="0 0 138 36" fill="none" xmlns="http://www.w3.org/2000/svg">
<path d="M46.7143 23.9738V8.54767H49.5507V17.9993L54.2223 12.0492H57.7737L52.9829 17.9993L57.7975 23.9738H54.2462L49.5507 17.9993V23.9738H46.7143Z" fill="#353535"/>
<path d="M67.7143 17.9979C67.7143 16.994 67.3806 16.137 66.6894 15.4269C65.9982 14.7168 65.164 14.3495 64.1868 14.3495C63.2095 14.3495 62.3753 14.7168 61.6841 15.4269C60.9929 16.137 60.6592 16.994 60.6592 17.9979C60.6592 19.0263 60.9929 19.8833 61.6841 20.6179C62.3753 21.328 63.2095 21.6953 64.1868 21.6953C65.1878 21.6953 66.022 21.328 66.6894 20.6179C67.3806 19.8833 67.7143 19.0263 67.7143 17.9979ZM70.6698 17.9979C70.6698 19.7854 70.0263 21.279 68.7392 22.5033C67.4521 23.7032 65.9267 24.3153 64.1629 24.3153C62.423 24.3153 60.8975 23.7032 59.5866 22.5033C58.2995 21.279 57.6322 19.7854 57.6322 17.9979C57.6322 16.2349 58.2757 14.7413 59.5628 13.517C60.8499 12.2927 62.3753 11.6805 64.1391 11.6805C65.9029 11.6805 67.4045 12.2927 68.7154 13.517C70.0263 14.7413 70.6698 16.2349 70.6698 17.9979Z" fill="#353535"/>
<path d="M72.3865 23.974V7.81328H75.2229V23.974H72.3865Z" fill="#353535"/>
<path d="M89.4725 17.9979C89.4725 18.3897 89.4248 18.8305 89.3056 19.3202H79.9624C80.1531 20.0303 80.5821 20.6179 81.2018 21.0832C81.8215 21.5484 82.4889 21.7688 83.2278 21.7688C83.8713 21.7688 84.5148 21.5974 85.1107 21.279C85.7066 20.9607 86.1595 20.5445 86.4693 20.0303L88.3999 21.7688C87.804 22.5523 87.0652 23.1645 86.1594 23.6297C85.2537 24.0705 84.2765 24.2908 83.2278 24.2908C81.464 24.2908 79.9624 23.6787 78.7468 22.4789C77.5312 21.2546 76.9115 19.7609 76.9115 17.9734C76.9115 16.186 77.5312 14.6923 78.7468 13.4925C79.9862 12.2927 81.464 11.6805 83.2278 11.6805C84.9439 11.6805 86.4216 12.2927 87.6372 13.517C88.8766 14.7658 89.4725 16.2349 89.4725 17.9979ZM80.0101 16.8471H86.4455C86.2786 16.088 85.8973 15.4514 85.3014 14.9617C84.7055 14.4719 84.0382 14.2271 83.2516 14.2271C82.4889 14.2271 81.7977 14.4719 81.178 14.9861C80.5821 15.4514 80.1769 16.088 80.0101 16.8471Z" fill="#353535"/>
<path d="M91.1908 23.974V7.81328H94.0271V17.9995L98.6987 12.0494H102.25L97.4593 17.9995L102.274 23.974H98.7226L94.0271 17.9995V23.974H91.1908Z" fill="#353535"/>
<path d="M102.728 14.4486V12.049H103.8V9.28206H106.637V12.0735H108.615V14.4731H106.637V20.8394C106.637 21.0843 106.732 21.3047 106.923 21.4761C107.113 21.6475 107.352 21.7454 107.59 21.7454C107.924 21.7454 108.162 21.6965 108.329 21.574L108.877 23.8757C108.305 24.1695 107.614 24.3165 106.78 24.3165C105.898 24.3165 105.159 24.0226 104.611 23.435C104.063 22.8473 103.777 22.0882 103.777 21.1578V14.4486H102.728Z" fill="#353535"/>
<path d="M110.089 12.0507H112.926V23.9509H110.089V12.0507ZM110.328 10.655C109.994 10.3122 109.827 9.92041 109.827 9.43069C109.827 8.96545 109.994 8.54919 110.328 8.20639C110.661 7.86358 111.066 7.69218 111.519 7.69218C111.996 7.69218 112.377 7.86358 112.711 8.20639C113.045 8.54919 113.212 8.94097 113.212 9.43069C113.212 9.89592 113.045 10.3122 112.711 10.655C112.377 10.9978 111.996 11.1692 111.519 11.1692C111.043 11.1692 110.661 10.9978 110.328 10.655Z" fill="#353535"/>
<path d="M135.044 17.9979C135.044 16.994 134.711 16.137 134.02 15.4269C133.328 14.7168 132.494 14.3495 131.517 14.3495C130.54 14.3495 129.705 14.7168 129.014 15.4269C128.323 16.137 127.989 16.994 127.989 17.9979C127.989 19.0263 128.323 19.8833 129.014 20.6179C129.705 21.328 130.54 21.6953 131.517 21.6953C132.518 21.6953 133.352 21.328 134.02 20.6179C134.711 19.8833 135.044 19.0263 135.044 17.9979ZM138 17.9979C138 19.7854 137.356 21.279 136.069 22.5033C134.782 23.7032 133.257 24.3153 131.493 24.3153C129.753 24.3153 128.228 23.7032 126.917 22.5033C125.63 21.279 124.962 19.7854 124.962 17.9979C124.962 16.2349 125.606 14.7413 126.893 13.517C128.18 12.2927 129.705 11.6805 131.469 11.6805C133.233 11.6805 134.735 12.2927 136.046 13.517C137.356 14.7413 138 16.2349 138 17.9979Z" fill="#353535"/>
<path d="M122.436 12.0516L119.671 18.1487H119.599L116.834 12.0516H113.927L119.623 24.1232L125.367 12.0516H122.436Z" fill="#353535"/>
<path fill-rule="evenodd" clip-rule="evenodd" d="M25.7836 2.12379C24.6422 1.50539 23.4261 1.0118 22.1528 0.660829L17.6027 5.31063V10.484L25.7836 2.12379Z" fill="#353535"/>
<path d="M10.3338 34.3538L10.3338 1.6299C9.02959 2.23276 7.81025 2.99366 6.69923 3.88868L6.69923 32.0951C7.81025 32.9901 9.02959 33.751 10.3338 34.3538Z" fill="#353535"/>
<path fill-rule="evenodd" clip-rule="evenodd" d="M33.3762 10.1594C33.9497 11.3658 34.3949 12.6477 34.6935 13.9866L30.7662 18L34.6905 22.0104C34.391 23.3485 33.9451 24.6296 33.371 25.8353L25.7038 18L33.3762 10.1594Z" fill="#353535"/>
<path fill-rule="evenodd" clip-rule="evenodd" d="M28.885 4.26511C29.7991 5.05293 30.6335 5.93436 31.374 6.89494L20.5071 18L31.3669 29.0979C30.6259 30.058 29.791 30.9388 28.8763 31.7261L17.6027 20.2054V15.7946L28.885 4.26511Z" fill="#353535"/>
<path fill-rule="evenodd" clip-rule="evenodd" d="M22.1402 35.3264C23.4143 34.9762 24.6311 34.4834 25.7732 33.8656L17.6027 25.516V30.6894L22.1402 35.3264Z" fill="#353535"/>
<path fill-rule="evenodd" clip-rule="evenodd" d="M13.9685 35.5641L13.9685 0.419647C15.1298 0.172661 16.3332 0.0428461 17.5662 0.0428461L17.5786 0.0428501L17.5923 0.042865L17.6031 0.0428845L17.6027 5.31063V10.484V15.7946V20.2054V25.516V30.6894L17.6031 35.9409C17.5908 35.9409 17.5785 35.9409 17.5662 35.9409C16.3332 35.9409 15.1298 35.8111 13.9685 35.5641Z" fill="#353535"/>
<path fill-rule="evenodd" clip-rule="evenodd" d="M3.06462 28.1243L3.06462 7.8594C1.13113 10.743 0 14.2324 0 17.9919C0 21.7513 1.13113 25.2408 3.06462 28.1243Z" fill="#353535"/>
<path fill-rule="evenodd" clip-rule="evenodd" d="M3.06462 7.8594C1.13113 10.743 0 14.2324 0 17.9919C0 21.7513 1.13113 25.2408 3.06462 28.1243L3.06462 7.8594ZM33.371 25.8353C33.9451 24.6296 34.391 23.3485 34.6905 22.0104L30.7662 18L34.6935 13.9866C34.3949 12.6477 33.9497 11.3658 33.3762 10.1594L25.7038 18L33.371 25.8353ZM31.3669 29.0979L20.5071 18L31.374 6.89494C30.6335 5.93436 29.7991 5.05293 28.885 4.26511L17.6027 15.7946V10.484L25.7836 2.12379C24.6422 1.50539 23.4261 1.0118 22.1528 0.660829L17.6027 5.31063L17.6031 0.0428845L17.5923 0.042865L17.5786 0.0428501L17.5662 0.0428461C16.3332 0.0428461 15.1298 0.172661 13.9685 0.419647L13.9685 35.5641C15.1298 35.8111 16.3332 35.9409 17.5662 35.9409C17.5785 35.9409 17.5908 35.9409 17.6031 35.9409L17.6027 30.6894L22.1402 35.3264C23.4143 34.9762 24.6311 34.4834 25.7732 33.8656L17.6027 25.516V20.2054L28.8763 31.7261C29.791 30.9388 30.6259 30.058 31.3669 29.0979Z" fill="#353535"/>
</svg>
