<svg width="24" height="24" viewBox="0 0 24 24" fill="none" xmlns="http://www.w3.org/2000/svg">
<path d="M16.6536 12.4272C16.6466 11.1206 17.2297 10.1344 18.4098 9.4081C17.7495 8.45038 16.752 7.92345 15.4348 7.8202C14.1879 7.72052 12.8251 8.55719 12.3264 8.55719C11.7995 8.55719 10.5912 7.85581 9.64288 7.85581C7.68295 7.88785 5.6001 9.44014 5.6001 12.5981C5.6001 13.5309 5.76869 14.4946 6.10588 15.4891C6.55547 16.7957 8.1782 20 9.87118 19.9466C10.7563 19.9252 11.3815 19.3093 12.5336 19.3093C13.6505 19.3093 14.2301 19.9466 15.2171 19.9466C16.9241 19.9217 18.3923 17.0093 18.8208 15.6992C16.5307 14.6061 16.6536 12.4949 16.6536 12.4272ZM14.6656 6.58122C15.6245 5.42768 15.5367 4.37739 15.5086 4C14.6621 4.04984 13.6821 4.58389 13.1237 5.24255C12.509 5.94749 12.1472 6.81976 12.2245 7.8024C13.1412 7.87361 13.9772 7.39653 14.6656 6.58122Z" fill="black"/>
</svg>
