<svg width="32" height="32" viewBox="0 0 32 32" fill="none" xmlns="http://www.w3.org/2000/svg">
<path d="M16.4514 20.0282C16.2907 20.0282 16.1411 20.0025 16.0027 19.9512C15.8642 19.8999 15.7326 19.8119 15.6078 19.6871L9.6155 13.6948C9.43088 13.5102 9.33644 13.2782 9.33217 12.9987C9.32788 12.7192 9.42233 12.4829 9.6155 12.2897C9.80866 12.0966 10.0428 12 10.318 12C10.5932 12 10.8274 12.0966 11.0206 12.2897L16.4514 17.7205L21.8822 12.2897C22.0668 12.1051 22.2988 12.0107 22.5783 12.0064C22.8578 12.0021 23.0941 12.0966 23.2872 12.2897C23.4804 12.4829 23.577 12.7171 23.577 12.9923C23.577 13.2675 23.4804 13.5017 23.2872 13.6948L17.2949 19.6871C17.1702 19.8119 17.0385 19.8999 16.9001 19.9512C16.7616 20.0025 16.6121 20.0282 16.4514 20.0282Z" fill="black"/>
</svg>
