<svg width="24" height="24" viewBox="0 0 24 24" fill="none" xmlns="http://www.w3.org/2000/svg">
<g clip-path="url(#clip0_1099_11090)">
<path d="M19.9998 12.1777C19.9998 11.5219 19.9454 11.0432 19.8275 10.5469H12.1631V13.5072H16.6619C16.5712 14.2429 16.0815 15.3509 14.993 16.0954L14.9777 16.1945L17.4011 18.029L17.569 18.0454C19.1109 16.6538 19.9998 14.6063 19.9998 12.1777Z" fill="#4285F4"/>
<path d="M12.1631 19.9776C14.3672 19.9776 16.2175 19.2684 17.569 18.0453L14.9931 16.0953C14.3037 16.5651 13.3785 16.893 12.1631 16.893C10.0044 16.893 8.17224 15.5015 7.51912 13.5781L7.42338 13.5861L4.90356 15.4917L4.87061 15.5812C6.213 18.1871 8.97037 19.9776 12.1631 19.9776Z" fill="#34A853"/>
<path d="M7.51924 13.5763C7.34691 13.08 7.24717 12.5481 7.24717 11.9986C7.24717 11.449 7.34691 10.9172 7.51017 10.4209L7.50561 10.3152L4.9542 8.37891L4.87073 8.41771C4.31746 9.49907 4 10.7134 4 11.9986C4 13.2838 4.31746 14.4981 4.87073 15.5794L7.51924 13.5763Z" fill="#FBBC05"/>
<path d="M12.1631 7.10791C13.696 7.10791 14.73 7.75494 15.3196 8.29565L17.6234 6.09749C16.2085 4.81229 14.3672 4.02344 12.1631 4.02344C8.97037 4.02344 6.213 5.81385 4.87061 8.4197L7.51005 10.4229C8.17224 8.4995 10.0044 7.10791 12.1631 7.10791Z" fill="#EB4335"/>
</g>
<defs>
<clipPath id="clip0_1099_11090">
<rect x="4" y="4" width="16" height="16" rx="8" fill="white"/>
</clipPath>
</defs>
</svg>
